<svg width="142" height="29" viewBox="0 0 142 29" fill="none" xmlns="http://www.w3.org/2000/svg">
<g clip-path="url(#clip0_81_444)">
<path d="M42.2052 8.43508V19.6079H49.0685V22.4809H38.8534V8.43508H42.2052ZM52.6595 11.3081V14.1013H58.5651V16.8147H52.6595V19.6079H59.842V22.4809H49.3076V8.43508H59.842V11.3081H52.6595ZM59.6105 8.43508H63.1619L65.4363 12.6049C65.5694 12.8576 65.6492 13.2234 65.6758 13.7023C65.6758 13.9816 65.7822 14.1212 65.995 14.1212C66.2078 14.1212 66.3142 13.9816 66.3142 13.7023C66.3408 13.2234 66.4206 12.8576 66.5536 12.6049L68.8281 8.43508H72.3794L68.2894 15.2385L72.6987 22.4809H69.1074L66.5536 17.932C66.4206 17.6925 66.3408 17.3334 66.3142 16.8546C66.3142 16.5753 66.2078 16.4356 65.995 16.4356C65.7822 16.4356 65.6758 16.5753 65.6758 16.8546C65.6492 17.3334 65.5694 17.6925 65.4363 17.932L62.8826 22.4809H59.2913L63.7006 15.2385L59.6105 8.43508ZM72.4568 22.4809V8.43508H75.8086V22.4809H72.4568ZM81.6279 8.43508L86.2566 19.4882C86.3364 19.6478 86.4362 19.7276 86.5559 19.7276C86.7288 19.7276 86.8153 19.6478 86.8153 19.4882C86.8153 19.3951 86.782 19.2687 86.7155 19.1091C86.5692 18.8032 86.4561 18.5305 86.3763 18.2911C86.2965 18.0384 86.2566 17.7857 86.2566 17.5329V8.43508H89.6085V22.4809H84.5009L79.8722 11.4278C79.779 11.2549 79.6726 11.1751 79.5529 11.1884C79.3933 11.2283 79.3135 11.3147 79.3135 11.4477C79.3135 11.5275 79.3468 11.6473 79.4133 11.8069C79.5596 12.1128 79.6726 12.3921 79.7524 12.6448C79.8322 12.8842 79.8722 13.1303 79.8722 13.383V22.4809H76.5203V8.43508H81.6279ZM89.5315 15.458C89.5315 14.088 89.8174 12.851 90.3894 11.747C90.9613 10.6297 91.7926 9.74522 92.8833 9.09347C93.974 8.44173 95.2642 8.11585 96.7539 8.11585C98.0707 8.11585 99.1946 8.35527 100.126 8.8341C101.07 9.29964 101.802 9.91813 102.32 10.6896C102.839 11.461 103.152 12.3057 103.258 13.2234H99.9262C99.7266 12.5451 99.3609 12.0064 98.8288 11.6074C98.3101 11.195 97.6251 10.9889 96.7738 10.9889C95.9492 10.9889 95.2442 11.1884 94.659 11.5874C94.0737 11.9731 93.6282 12.5052 93.3222 13.1835C93.0296 13.8619 92.8833 14.62 92.8833 15.458C92.8833 16.7748 93.1892 17.8522 93.8011 18.6901C94.4262 19.5148 95.344 19.9271 96.5544 19.9271C97.1928 19.9271 97.7581 19.8008 98.2502 19.548C98.7557 19.282 99.1481 18.9628 99.4274 18.5904C99.7067 18.2179 99.8663 17.8655 99.9062 17.5329H96.714V14.8195H103.258V22.4809H99.9062V22.1218C99.9062 21.6961 100.013 21.224 100.225 20.7052C100.305 20.519 100.345 20.3793 100.345 20.2862C100.345 20.1665 100.305 20.0934 100.225 20.0668C100.172 20.0402 100.132 20.0269 100.106 20.0269C99.986 20.0269 99.8929 20.1067 99.8264 20.2663C99.5338 20.9313 99.0816 21.5232 98.4697 22.042C97.8712 22.5474 97.0665 22.8001 96.0556 22.8001C94.7122 22.8001 93.5483 22.4809 92.5641 21.8424C91.5798 21.204 90.8283 20.3261 90.3096 19.2089C89.7908 18.0916 89.5315 16.8413 89.5315 15.458ZM114.824 8.43508V11.3081H110.435V22.4809H107.083V11.3081H102.694V8.43508H114.824ZM120.798 8.11585C122.315 8.11585 123.611 8.44173 124.689 9.09347C125.78 9.73192 126.598 10.6098 127.143 11.7271C127.702 12.8443 127.981 14.088 127.981 15.458C127.981 16.828 127.702 18.0716 127.143 19.1889C126.598 20.3062 125.78 21.1907 124.689 21.8424C123.611 22.4809 122.315 22.8001 120.798 22.8001C119.282 22.8001 117.979 22.4809 116.888 21.8424C115.81 21.1907 114.992 20.3062 114.434 19.1889C113.888 18.0716 113.616 16.828 113.616 15.458C113.616 14.088 113.888 12.8443 114.434 11.7271C114.992 10.6098 115.81 9.73192 116.888 9.09347C117.979 8.44173 119.282 8.11585 120.798 8.11585ZM120.798 19.9271C121.596 19.9271 122.281 19.7342 122.853 19.3485C123.439 18.9495 123.878 18.4108 124.17 17.7325C124.476 17.0541 124.629 16.2959 124.629 15.458C124.629 14.62 124.476 13.8619 124.17 13.1835C123.878 12.5052 123.439 11.9731 122.853 11.5874C122.281 11.1884 121.596 10.9889 120.798 10.9889C120 10.9889 119.309 11.1884 118.723 11.5874C118.151 11.9731 117.713 12.5052 117.407 13.1835C117.114 13.8619 116.968 14.62 116.968 15.458C116.968 16.2959 117.114 17.0541 117.407 17.7325C117.713 18.4108 118.151 18.9495 118.723 19.3485C119.309 19.7342 120 19.9271 120.798 19.9271ZM133.011 8.43508L137.64 19.4882C137.72 19.6478 137.82 19.7276 137.939 19.7276C138.112 19.7276 138.199 19.6478 138.199 19.4882C138.199 19.3951 138.166 19.2687 138.099 19.1091C137.953 18.8032 137.84 18.5305 137.76 18.2911C137.68 18.0384 137.64 17.7857 137.64 17.5329V8.43508H140.992V22.4809H135.884L131.256 11.4278C131.163 11.2549 131.056 11.1751 130.936 11.1884C130.777 11.2283 130.697 11.3147 130.697 11.4477C130.697 11.5275 130.73 11.6473 130.797 11.8069C130.943 12.1128 131.056 12.3921 131.136 12.6448C131.216 12.8842 131.256 13.1303 131.256 13.383V22.4809H127.904V8.43508H133.011Z" fill="#212529"/>
<g clip-path="url(#clip1_81_444)">
<path d="M14.1562 0.854004H12.8503V27.8601H14.1562V0.854004Z" fill="#FF2700"/>
<path d="M14.1562 0.854004H12.8503V27.8601H14.1562V0.854004Z" fill="#FF2700"/>
<path d="M27.0061 13.7041H0V15.01H27.0061V13.7041Z" fill="#FF2700"/>
<path d="M27.0061 13.7041H0V15.01H27.0061V13.7041Z" fill="#FF2700"/>
<path d="M4.41438 4.34644L3.49099 5.26984L22.5871 24.3659L23.5104 23.4424L4.41438 4.34644Z" fill="#FF2700"/>
<path d="M4.41438 4.34644L3.49099 5.26984L22.5871 24.3659L23.5104 23.4424L4.41438 4.34644Z" fill="#FF2700"/>
<path d="M22.5871 4.34619L3.49099 23.4422L4.41438 24.3656L23.5104 5.2696L22.5871 4.34619Z" fill="#FF2700"/>
<path d="M22.5871 4.34619L3.49099 23.4422L4.41438 24.3656L23.5104 5.2696L22.5871 4.34619Z" fill="#FF2700"/>
<path d="M1.24804 8.66199L0.755318 9.87138L25.7657 20.0609L26.2584 18.8514L1.24804 8.66199Z" fill="#FF2700"/>
<path d="M1.24804 8.66199L0.755318 9.87138L25.7657 20.0609L26.2584 18.8514L1.24804 8.66199Z" fill="#FF2700"/>
<path d="M17.9974 1.61121L7.80794 26.6215L9.01733 27.1143L19.2067 2.10392L17.9974 1.61121Z" fill="#FF2700"/>
<path d="M17.9974 1.61121L7.80794 26.6215L9.01733 27.1143L19.2067 2.10392L17.9974 1.61121Z" fill="#FF2700"/>
<path d="M25.7955 8.70746L0.741867 18.7915L1.22949 20.003L26.283 9.91895L25.7955 8.70746Z" fill="#FF2700"/>
<path d="M25.7955 8.70746L0.741867 18.7915L1.22949 20.003L26.283 9.91895L25.7955 8.70746Z" fill="#FF2700"/>
<path d="M9.05941 1.59637L7.84792 2.08387L17.9293 27.1374L19.1407 26.65L9.05941 1.59637Z" fill="#FF2700"/>
<path d="M9.05941 1.59637L7.84792 2.08387L17.9293 27.1374L19.1407 26.65L9.05941 1.59637Z" fill="#FF2700"/>
</g>
</g>
<defs>
<clipPath id="clip0_81_444">
<rect width="142" height="27.1898" fill="white" transform="translate(0 0.826843)"/>
</clipPath>
<clipPath id="clip1_81_444">
<rect width="27.0061" height="27.1898" fill="white" transform="translate(0 0.826843)"/>
</clipPath>
</defs>
</svg>
